<?xml version="1.0" standalone="no"?>
<!DOCTYPE svg PUBLIC "-//W3C//DTD SVG 20010904//EN"
 "http://www.w3.org/TR/2001/REC-SVG-20010904/DTD/svg10.dtd">
<svg version="1.0" xmlns="http://www.w3.org/2000/svg"
 width="198.000000pt" height="254.000000pt" viewBox="0 0 198.000000 254.000000"
 preserveAspectRatio="xMidYMid meet">

<g transform="translate(0.000000,254.000000) scale(0.100000,-0.100000)"
fill="#fff" stroke="none">
<path d="M633 2519 c-21 -26 -20 -79 2 -79 19 0 30 45 18 72 -7 16 -11 18 -20
7z"/>
<path d="M715 2495 c-3 -8 -7 -21 -9 -29 -3 -8 2 -22 9 -33 13 -16 16 -16 25
-3 11 17 13 41 4 64 -8 20 -23 21 -29 1z"/>
<path d="M500 2479 c-14 -25 -5 -69 14 -69 18 0 27 36 16 66 -12 29 -16 30
-30 3z"/>
<path d="M1052 2488 c-14 -14 -16 -68 -3 -68 14 0 41 41 41 62 0 21 -20 24
-38 6z"/>
<path d="M1197 2482 c-20 -22 -22 -52 -4 -52 21 0 35 14 42 43 9 32 -12 37
-38 9z"/>
<path d="M1286 2474 c-19 -19 -21 -54 -3 -54 20 0 37 22 37 47 0 27 -12 29
-34 7z"/>
<path d="M807 2474 c-4 -4 -7 -23 -7 -41 0 -27 4 -34 18 -31 12 2 17 13 17 37
0 33 -13 49 -28 35z"/>
<path d="M900 2444 c-13 -33 -13 -39 4 -53 21 -17 39 11 31 49 -8 37 -22 39
-35 4z"/>
<path d="M1130 2442 c-39 -12 -55 -72 -20 -72 13 0 24 10 31 27 12 33 8 51
-11 45z"/>
<path d="M974 2417 c-8 -35 -1 -62 16 -62 11 0 15 11 15 39 0 45 -21 60 -31
23z"/>
<path d="M574 2416 c-8 -22 0 -69 12 -73 7 -2 14 7 17 19 12 45 -14 92 -29 54z"/>
<path d="M1310 2401 c-14 -28 -12 -51 4 -51 16 0 46 37 46 57 0 20 -38 15 -50
-6z"/>
<path d="M1428 2408 c-20 -16 -32 -54 -19 -63 14 -8 51 31 51 55 0 23 -9 25
-32 8z"/>
<path d="M668 2390 c-19 -26 -24 -70 -9 -70 18 0 32 30 29 62 l-3 33 -17 -25z"/>
<path d="M420 2379 c-13 -23 -6 -69 10 -69 18 0 31 49 20 71 -13 24 -17 24
-30 -2z"/>
<path d="M734 2357 c-8 -35 -1 -62 16 -62 11 0 15 11 15 39 0 45 -21 60 -31
23z"/>
<path d="M1221 2354 c-25 -31 -23 -49 5 -49 23 0 44 49 27 66 -7 7 -17 2 -32
-17z"/>
<path d="M490 2333 c0 -27 5 -43 15 -47 24 -9 23 49 -1 74 -12 12 -14 9 -14
-27z"/>
<path d="M1042 2348 c-13 -13 -17 -78 -4 -78 26 0 41 50 24 77 -6 10 -11 10
-20 1z"/>
<path d="M814 2324 c-7 -28 6 -61 22 -56 14 3 11 75 -3 79 -7 3 -15 -8 -19
-23z"/>
<path d="M894 2325 c-19 -29 -12 -58 11 -48 15 5 35 42 35 64 0 18 -30 8 -46
-16z"/>
<path d="M1137 2334 c-9 -10 -9 -74 1 -74 20 1 33 20 30 45 -3 28 -18 42 -31
29z"/>
<path d="M1502 2308 c-13 -13 -16 -58 -4 -58 16 0 40 25 45 48 4 16 1 22 -12
22 -9 0 -22 -5 -29 -12z"/>
<path d="M565 2288 c-8 -30 10 -71 28 -65 20 6 19 42 -2 68 l-19 24 -7 -27z"/>
<path d="M1307 2292 c-21 -23 -22 -62 -2 -62 17 0 35 30 35 59 0 26 -12 27
-33 3z"/>
<path d="M1410 2281 c-17 -32 -13 -61 8 -54 22 9 32 23 32 51 0 27 -25 29 -40
3z"/>
<path d="M360 2257 c0 -31 14 -57 32 -57 13 0 9 65 -4 78 -20 20 -28 14 -28
-21z"/>
<path d="M665 2268 c-8 -30 10 -71 28 -65 20 6 19 42 -2 68 l-19 24 -7 -27z"/>
<path d="M950 2271 c-13 -25 -13 -61 -1 -61 14 0 41 41 41 62 0 24 -27 23 -40
-1z"/>
<path d="M1072 2247 c-16 -19 -25 -64 -14 -71 17 -10 42 23 42 55 0 31 -11 37
-28 16z"/>
<path d="M1216 2245 c-9 -24 -7 -65 3 -65 16 0 33 29 29 51 -4 27 -23 36 -32
14z"/>
<path d="M470 2232 c0 -30 36 -70 50 -55 9 8 9 18 -2 39 -16 35 -48 45 -48 16z"/>
<path d="M746 2234 c-7 -19 13 -66 32 -72 20 -6 14 53 -7 72 -17 16 -19 16
-25 0z"/>
<path d="M1536 2224 c-9 -8 -16 -27 -16 -41 0 -24 1 -25 22 -11 26 18 43 68
23 68 -8 0 -21 -7 -29 -16z"/>
<path d="M850 2208 c0 -13 6 -33 14 -44 22 -28 44 -4 30 33 -12 36 -44 44 -44
11z"/>
<path d="M980 2191 c-15 -29 -12 -61 5 -61 19 0 40 43 32 64 -9 22 -24 20 -37
-3z"/>
<path d="M1137 2203 c-9 -8 -9 -68 0 -76 13 -13 33 16 33 49 0 32 -16 45 -33
27z"/>
<path d="M1346 2194 c-3 -9 -6 -23 -6 -31 0 -13 3 -13 15 -3 16 13 21 50 6 50
-5 0 -12 -7 -15 -16z"/>
<path d="M550 2167 c0 -31 14 -57 32 -57 14 0 8 58 -8 74 -22 22 -24 20 -24
-17z"/>
<path d="M1636 2184 c-9 -8 -16 -27 -16 -40 0 -22 3 -23 20 -14 20 11 40 40
40 59 0 16 -26 13 -44 -5z"/>
<path d="M332 2148 c2 -31 8 -44 21 -46 22 -5 24 50 1 72 -23 23 -25 20 -22
-26z"/>
<path d="M420 2166 c0 -35 10 -56 26 -56 14 0 19 36 8 64 -10 25 -34 19 -34
-8z"/>
<path d="M630 2166 c0 -35 10 -56 26 -56 17 0 19 51 2 68 -18 18 -28 14 -28
-12z"/>
<path d="M1272 2178 c-13 -13 -16 -78 -4 -78 16 0 32 25 32 51 0 32 -12 43
-28 27z"/>
<path d="M1442 2174 c-25 -17 -30 -54 -8 -54 16 0 46 37 46 57 0 17 -11 16
-38 -3z"/>
<path d="M725 2128 c-10 -26 -2 -63 15 -63 20 0 24 36 6 60 -13 18 -15 18 -21
3z"/>
<path d="M814 2126 c-10 -25 0 -61 17 -64 20 -4 29 25 18 56 -9 25 -27 29 -35
8z"/>
<path d="M1032 2128 c-16 -16 -15 -48 2 -48 17 0 25 20 17 43 -5 14 -9 15 -19
5z"/>
<path d="M1181 2116 c-15 -18 -11 -68 5 -73 14 -5 32 44 26 70 -4 21 -16 22
-31 3z"/>
<path d="M1537 2112 c-18 -20 -23 -52 -8 -52 16 0 41 31 41 51 0 24 -12 24
-33 1z"/>
<path d="M220 2101 c0 -11 12 -29 28 -41 l27 -22 3 23 c3 15 -4 30 -18 41 -29
23 -40 23 -40 -1z"/>
<path d="M490 2096 c0 -35 10 -56 26 -56 21 0 27 22 15 53 -13 34 -41 36 -41
3z"/>
<path d="M906 2112 c-8 -13 5 -52 15 -46 12 7 12 54 0 54 -6 0 -12 -4 -15 -8z"/>
<path d="M1341 2101 c-20 -20 -29 -61 -13 -61 27 0 56 48 42 70 -6 9 -13 7
-29 -9z"/>
<path d="M1683 2108 c-16 -21 -22 -44 -14 -56 11 -19 51 15 51 44 0 26 -21 32
-37 12z"/>
<path d="M1087 2103 c-10 -9 -8 -55 2 -72 12 -19 31 -5 31 24 0 43 -16 66 -33
48z"/>
<path d="M620 2056 c0 -38 25 -57 35 -26 7 21 -10 60 -25 60 -6 0 -10 -15 -10
-34z"/>
<path d="M961 2072 c-18 -33 -14 -74 7 -70 20 4 28 49 14 74 -9 16 -11 15 -21
-4z"/>
<path d="M1437 2062 c-23 -25 -22 -53 1 -45 34 12 58 63 29 63 -8 0 -21 -8
-30 -18z"/>
<path d="M426 2044 c-7 -19 13 -66 32 -72 18 -6 15 53 -4 72 -19 20 -20 20
-28 0z"/>
<path d="M1597 2042 c-20 -22 -22 -42 -4 -42 19 0 37 21 37 42 0 23 -12 23
-33 0z"/>
<path d="M1756 2041 c-19 -20 -14 -41 8 -41 16 0 46 32 46 48 0 19 -35 14 -54
-7z"/>
<path d="M320 2032 c0 -21 29 -52 48 -52 18 0 14 35 -6 53 -24 22 -42 21 -42
-1z"/>
<path d="M774 2037 c-8 -23 12 -70 29 -64 20 6 19 32 -2 58 -18 22 -20 23 -27
6z"/>
<path d="M1035 2028 c-4 -16 -4 -36 0 -45 6 -17 7 -17 21 1 17 24 17 28 0 52
-14 18 -15 18 -21 -8z"/>
<path d="M1250 2031 c-15 -29 -12 -61 5 -61 19 0 40 43 32 64 -9 22 -24 20
-37 -3z"/>
<path d="M140 2005 c0 -21 24 -45 44 -45 11 0 6 46 -6 58 -20 20 -38 14 -38
-13z"/>
<path d="M690 2001 c0 -33 28 -70 40 -51 11 18 -1 60 -21 71 -17 8 -19 6 -19
-20z"/>
<path d="M877 2016 c-8 -19 6 -69 20 -73 17 -6 25 31 14 61 -12 29 -26 34 -34
12z"/>
<path d="M1517 2012 c-21 -23 -22 -62 -2 -62 17 0 35 30 35 59 0 26 -12 27
-33 3z"/>
<path d="M555 2001 c-9 -28 3 -61 21 -61 11 0 14 9 12 37 -3 41 -23 55 -33 24z"/>
<path d="M1141 2006 c-14 -17 -7 -66 10 -66 16 0 22 27 12 56 -8 23 -10 24
-22 10z"/>
<path d="M226 1994 c-7 -18 18 -64 34 -64 14 0 12 54 -2 68 -16 16 -25 15 -32
-4z"/>
<path d="M1345 1986 c-10 -15 -14 -33 -10 -46 6 -20 8 -21 26 -4 20 18 26 59
9 69 -5 3 -16 -6 -25 -19z"/>
<path d="M1652 1994 c-29 -20 -30 -54 -2 -47 25 7 46 41 33 54 -5 5 -18 2 -31
-7z"/>
<path d="M1426 1968 c-17 -25 -22 -68 -7 -68 18 0 41 31 41 55 0 33 -16 39
-34 13z"/>
<path d="M310 1946 c0 -35 10 -56 26 -56 23 0 28 28 10 55 -21 32 -36 32 -36
1z"/>
<path d="M635 1941 c-8 -27 2 -58 21 -65 20 -8 29 20 18 52 -12 33 -30 39 -39
13z"/>
<path d="M974 1946 c-9 -22 0 -69 13 -73 15 -5 27 38 18 66 -7 24 -23 27 -31
7z"/>
<path d="M1073 1933 c-25 -25 -31 -63 -9 -63 22 0 38 26 34 57 l-3 28 -22 -22z"/>
<path d="M1788 1939 c-10 -5 -22 -19 -28 -29 -9 -17 -7 -20 14 -20 27 0 56 24
56 46 0 16 -18 18 -42 3z"/>
<path d="M390 1926 c0 -29 20 -66 35 -66 17 0 20 32 5 61 -12 22 -40 26 -40 5z"/>
<path d="M807 1933 c-12 -12 -7 -70 6 -82 19 -15 27 -4 27 34 0 32 -20 61 -33
48z"/>
<path d="M1192 1928 c-14 -14 -16 -68 -3 -68 18 0 41 32 41 56 0 26 -18 32
-38 12z"/>
<path d="M1544 1915 c-24 -37 -3 -76 23 -42 6 6 13 24 17 40 8 36 -17 37 -40
2z"/>
<path d="M1675 1918 c-14 -21 -14 -23 0 -26 19 -4 45 15 45 34 0 22 -27 16
-45 -8z"/>
<path d="M80 1917 c0 -22 31 -57 51 -57 26 0 24 16 -6 45 -26 27 -45 32 -45
12z"/>
<path d="M485 1907 c-8 -29 11 -70 28 -64 21 6 19 52 -2 71 -20 18 -20 18 -26
-7z"/>
<path d="M180 1886 c0 -33 20 -62 33 -49 11 11 8 58 -5 71 -20 20 -28 14 -28
-22z"/>
<path d="M1270 1900 c-7 -12 -9 -33 -5 -47 6 -25 6 -25 26 -7 21 19 23 65 2
71 -6 2 -17 -5 -23 -17z"/>
<path d="M260 1872 c0 -30 16 -52 37 -52 18 0 16 31 -3 58 -21 30 -34 28 -34
-6z"/>
<path d="M880 1877 c0 -28 26 -67 46 -67 21 0 18 53 -4 73 -26 24 -42 21 -42
-6z"/>
<path d="M566 1874 c-8 -22 3 -62 20 -68 19 -7 29 36 14 63 -13 25 -26 27 -34
5z"/>
<path d="M710 1878 c0 -21 22 -45 48 -53 25 -7 30 11 10 37 -18 23 -58 33 -58
16z"/>
<path d="M1367 1884 c-4 -4 -7 -23 -7 -41 0 -42 23 -41 28 1 4 29 -9 52 -21
40z"/>
<path d="M1452 1868 c-17 -17 -15 -68 2 -68 16 0 26 21 26 56 0 26 -10 30 -28
12z"/>
<path d="M1602 1845 c-27 -35 -28 -55 -2 -55 26 0 46 41 33 65 -9 15 -12 14
-31 -10z"/>
<path d="M1686 1838 c-21 -29 -20 -38 3 -38 23 0 51 25 51 46 0 22 -37 17 -54
-8z"/>
<path d="M357 1844 c-13 -13 -7 -61 8 -74 19 -16 28 -8 28 25 0 28 -24 60 -36
49z"/>
<path d="M1100 1830 c-11 -11 -20 -24 -20 -30 0 -19 49 -10 64 12 27 39 -8 54
-44 18z"/>
<path d="M1767 1843 c-4 -3 -7 -12 -7 -20 0 -20 45 -16 71 7 l24 19 -41 1
c-22 0 -44 -3 -47 -7z"/>
<path d="M50 1821 c0 -23 25 -51 46 -51 20 0 17 34 -4 53 -25 23 -42 21 -42
-2z"/>
<path d="M936 1618 c-27 -117 -53 -219 -56 -227 -8 -14 -20 48 -39 199 -9 69
-30 180 -34 180 -1 0 0 -82 1 -182 l4 -181 -69 63 c-99 92 -215 175 -298 215
-127 61 -143 43 -28 -31 135 -85 443 -406 443 -461 0 -13 -11 -15 -72 -10 -40
3 -90 13 -112 22 -56 24 -129 97 -182 183 -55 89 -95 144 -101 139 -7 -8 68
-175 116 -258 27 -46 47 -85 46 -87 -9 -10 -150 35 -236 74 -73 34 -107 44
-126 39 -15 -3 -22 -10 -17 -15 34 -32 246 -138 328 -165 17 -5 8 -17 -59 -85
-44 -44 -74 -80 -68 -80 6 0 49 31 94 70 59 50 94 72 123 78 48 9 151 -2 216
-23 l45 -15 29 -166 c15 -91 26 -168 23 -170 -3 -3 -59 -12 -125 -20 -191 -22
-361 -63 -482 -118 -42 -18 -32 -20 41 -6 135 26 374 40 668 40 265 0 417 -7
746 -35 l70 -5 -76 24 c-41 13 -121 34 -177 47 l-102 24 0 36 c0 20 3 57 6 83
5 36 11 46 25 46 11 0 19 2 19 5 0 8 -39 45 -48 45 -12 0 -101 -139 -108 -167
-5 -19 -13 -23 -48 -23 -22 0 -64 3 -91 6 l-51 6 -31 97 c-17 53 -47 135 -67
183 -20 48 -36 93 -36 99 0 21 176 4 335 -34 249 -58 310 -57 105 2 -56 16
-107 34 -112 39 -6 6 15 12 53 16 79 9 159 39 189 71 29 31 19 32 -86 4 -71
-19 -94 -20 -234 -13 -85 4 -179 8 -207 8 -29 1 -53 6 -54 11 -2 10 77 72 171
135 24 17 78 43 120 59 130 51 171 72 211 108 58 53 47 58 -25 13 -59 -37
-200 -94 -218 -88 -4 2 22 39 57 83 87 106 132 174 141 209 10 41 -9 27 -87
-63 -75 -88 -213 -211 -318 -283 l-74 -51 6 48 c15 108 75 195 198 286 39 28
68 54 65 57 -12 12 -118 -53 -180 -109 -37 -34 -68 -60 -70 -58 -2 2 0 29 5
59 4 30 8 94 8 143 l1 87 -28 0 -27 0 -49 -212z"/>
<path d="M1516 1814 c-17 -17 -22 -54 -7 -54 16 0 41 31 41 51 0 23 -13 24
-34 3z"/>
<path d="M444 1806 c-9 -22 0 -69 13 -73 15 -5 27 38 18 66 -7 24 -23 27 -31
7z"/>
<path d="M150 1794 c0 -27 20 -54 41 -54 16 0 19 4 13 23 -13 43 -54 67 -54
31z"/>
<path d="M640 1785 c0 -14 10 -35 23 -47 l22 -23 3 23 c5 32 -3 49 -27 62 -19
9 -21 8 -21 -15z"/>
<path d="M1187 1792 c-17 -19 -22 -53 -10 -65 12 -13 43 26 43 55 0 32 -10 36
-33 10z"/>
<path d="M1280 1790 c-27 -27 -25 -40 5 -40 23 0 45 24 45 49 0 18 -29 12 -50
-9z"/>
<path d="M230 1781 c0 -22 30 -51 53 -51 36 0 9 47 -35 63 -13 5 -18 1 -18
-12z"/>
<path d="M847 1770 c5 -20 39 -50 55 -50 17 0 7 40 -14 54 -31 22 -47 20 -41
-4z"/>
<path d="M520 1754 c-13 -33 2 -78 23 -72 19 7 21 72 3 87 -13 11 -17 9 -26
-15z"/>
<path d="M730 1760 c10 -19 50 -29 50 -12 0 14 -24 32 -42 32 -16 0 -17 -3 -8
-20z"/>
<path d="M1762 1769 c-26 -10 -25 -32 2 -37 21 -5 69 26 61 38 -8 12 -32 12
-63 -1z"/>
<path d="M1342 1738 c-19 -19 -14 -28 16 -28 16 0 37 9 47 20 18 20 17 20 -16
20 -19 0 -40 -5 -47 -12z"/>
<path d="M1536 1734 c-22 -22 -20 -34 7 -34 25 0 67 26 67 41 0 15 -57 10 -74
-7z"/>
<path d="M1648 1738 c-8 -7 -18 -21 -21 -30 -9 -26 39 -24 53 1 20 39 2 56
-32 29z"/>
<path d="M5 1708 c12 -39 55 -64 55 -32 0 27 -20 54 -41 54 -16 0 -19 -4 -14
-22z"/>
<path d="M1080 1711 c-17 -33 -12 -53 13 -49 17 2 23 11 25 36 4 37 -20 45
-38 13z"/>
<path d="M605 1705 c-3 -8 -7 -21 -9 -27 -6 -21 12 -58 28 -58 22 0 29 48 11
76 -18 28 -24 30 -30 9z"/>
<path d="M1838 1713 c-36 -9 -20 -33 21 -33 34 0 62 14 50 24 -9 7 -55 13 -71
9z"/>
<path d="M100 1706 c0 -15 36 -36 61 -36 27 0 29 2 19 20 -8 14 -21 20 -45 20
-19 0 -35 -2 -35 -4z"/>
<path d="M701 1691 c-11 -7 -9 -13 8 -30 22 -22 56 -28 66 -12 3 5 -7 19 -21
30 -30 23 -33 24 -53 12z"/>
<path d="M1718 1689 c-26 -15 -22 -39 5 -39 22 0 57 27 57 43 0 11 -43 8 -62
-4z"/>
<path d="M235 1670 c-10 -17 5 -30 34 -30 29 0 57 21 44 33 -10 11 -71 8 -78
-3z"/>
<path d="M860 1662 c0 -19 18 -42 32 -42 12 0 9 35 -4 48 -17 17 -28 15 -28
-6z"/>
<path d="M1283 1670 c-30 -12 -29 -38 0 -45 26 -7 77 10 77 25 0 8 -44 32 -53
29 -1 0 -12 -4 -24 -9z"/>
<path d="M1494 1656 c-42 -31 21 -47 66 -16 13 9 13 11 0 20 -21 14 -43 12
-66 -4z"/>
<path d="M1607 1632 c-23 -26 -22 -52 3 -52 11 0 23 6 25 13 17 49 1 71 -28
39z"/>
<path d="M1850 1625 c-10 -12 -7 -15 15 -21 34 -8 86 13 64 27 -22 14 -65 11
-79 -6z"/>
<path d="M36 1621 c-10 -16 39 -65 57 -58 10 4 17 10 17 15 0 27 -62 63 -74
43z"/>
<path d="M160 1617 c0 -20 30 -57 46 -57 19 0 18 35 -2 54 -19 19 -44 21 -44
3z"/>
<path d="M331 1616 c-11 -13 -9 -16 12 -21 35 -9 62 -2 62 15 0 21 -58 25 -74
6z"/>
<path d="M1717 1602 c-24 -26 -21 -34 9 -30 15 2 33 13 42 26 14 21 13 22 -10
22 -14 0 -32 -8 -41 -18z"/>
<path d="M700 1594 c0 -30 31 -73 53 -74 15 0 6 57 -11 73 -23 21 -42 22 -42
1z"/>
<path d="M1200 1593 c-8 -3 -23 -13 -33 -21 -37 -33 36 -45 74 -12 21 17 22
21 9 30 -16 11 -27 11 -50 3z"/>
<path d="M1460 1575 c0 -12 8 -16 33 -13 17 2 32 8 32 13 0 6 -15 11 -32 13
-25 3 -33 -1 -33 -13z"/>
<path d="M270 1570 c-13 -9 -12 -12 4 -25 34 -26 96 -13 63 13 -21 17 -51 22
-67 12z"/>
<path d="M428 1569 c-31 -18 -20 -30 24 -27 31 2 44 8 46 21 3 13 -3 17 -25
17 -15 0 -36 -5 -45 -11z"/>
<path d="M1803 1563 c-19 -7 -15 -31 6 -38 21 -6 71 10 71 24 0 15 -51 25 -77
14z"/>
<path d="M150 1525 c0 -14 10 -35 23 -47 l22 -23 3 28 c2 17 -4 37 -14 48 -23
26 -34 24 -34 -6z"/>
<path d="M1625 1541 c-3 -5 -1 -12 5 -16 14 -9 52 4 45 16 -8 12 -42 12 -50 0z"/>
<path d="M10 1521 c0 -18 32 -41 56 -41 29 0 32 25 5 40 -24 13 -61 13 -61 1z"/>
<path d="M1398 1519 c-25 -14 -22 -29 6 -29 31 0 53 25 30 34 -19 7 -15 8 -36
-5z"/>
<path d="M1720 1512 c-14 -11 -21 -26 -18 -41 l3 -23 28 22 c15 12 27 30 27
41 0 24 -11 24 -40 1z"/>
<path d="M1885 1506 c-17 -14 -18 -17 -5 -26 21 -14 43 -12 66 4 22 16 19 22
-16 31 -16 4 -33 0 -45 -9z"/>
<path d="M493 1503 c-7 -2 -13 -11 -13 -18 0 -26 69 -35 89 -11 20 24 -36 46
-76 29z"/>
<path d="M295 1490 c-10 -16 63 -46 77 -32 8 8 8 15 -2 27 -14 17 -65 21 -75
5z"/>
<path d="M1098 1489 c-27 -15 -23 -49 5 -49 28 0 67 26 67 46 0 16 -46 19 -72
3z"/>
<path d="M1570 1477 c0 -21 22 -37 52 -37 32 0 35 10 10 33 -22 20 -62 22 -62
4z"/>
<path d="M110 1459 c0 -25 22 -49 45 -49 30 0 32 13 5 40 -21 21 -50 27 -50 9z"/>
<path d="M240 1456 c0 -20 35 -56 55 -56 18 0 20 34 3 48 -7 5 -23 13 -35 16
-17 6 -23 3 -23 -8z"/>
<path d="M1780 1446 c0 -20 32 -28 64 -16 37 14 23 30 -25 30 -27 0 -39 -4
-39 -14z"/>
<path d="M554 1418 c-10 -15 24 -38 56 -38 36 0 43 10 23 32 -18 20 -68 24
-79 6z"/>
<path d="M1496 1414 c-7 -19 18 -69 39 -77 12 -5 15 1 15 28 0 48 -40 85 -54
49z"/>
<path d="M1902 1418 c-7 -7 -12 -16 -12 -20 0 -12 48 -10 72 3 17 9 18 13 7
20 -20 12 -53 11 -67 -3z"/>
<path d="M10 1400 c20 -38 70 -53 70 -20 0 21 -27 40 -60 40 -18 0 -19 -3 -10
-20z"/>
<path d="M1634 1400 c-12 -4 -24 -18 -27 -29 -4 -17 -1 -21 17 -21 24 0 56 28
56 48 0 14 -16 14 -46 2z"/>
<path d="M1715 1399 c-10 -15 21 -39 51 -39 47 0 37 36 -13 46 -20 4 -33 2
-38 -7z"/>
<path d="M210 1376 c0 -37 10 -56 31 -56 23 0 25 27 3 58 -20 29 -34 28 -34
-2z"/>
<path d="M115 1368 c13 -44 64 -63 57 -22 -5 28 -22 44 -44 44 -15 0 -18 -5
-13 -22z"/>
<path d="M340 1382 c0 -16 36 -42 58 -42 27 0 29 26 3 40 -24 12 -61 13 -61 2z"/>
<path d="M1410 1365 c0 -31 16 -65 31 -65 6 0 9 18 7 42 -2 31 -8 44 -20 46
-14 3 -18 -3 -18 -23z"/>
<path d="M302 1329 c3 -31 30 -60 44 -47 12 12 -6 57 -27 68 -19 11 -20 9 -17
-21z"/>
<path d="M1310 1342 c0 -23 30 -52 53 -52 11 0 14 5 10 18 -16 45 -63 70 -63
34z"/>
<path d="M1880 1335 c0 -20 32 -35 58 -28 25 6 27 14 10 31 -17 17 -68 15 -68
-3z"/>
<path d="M630 1330 c-13 -9 -12 -12 4 -25 28 -21 87 -1 72 24 -9 14 -56 14
-76 1z"/>
<path d="M1672 1317 c-25 -27 -29 -57 -7 -57 22 0 48 46 38 65 -8 13 -12 12
-31 -8z"/>
<path d="M1792 1324 c-12 -8 -22 -24 -22 -35 0 -17 4 -19 23 -13 25 8 37 22
37 47 0 21 -9 22 -38 1z"/>
<path d="M50 1316 c0 -21 43 -48 64 -40 31 12 12 37 -37 49 -21 6 -27 4 -27
-9z"/>
<path d="M1225 1310 c-8 -13 12 -40 29 -40 21 0 41 19 31 28 -17 16 -53 23
-60 12z"/>
<path d="M1570 1301 c-11 -22 -13 -54 -3 -64 13 -13 33 16 33 49 0 38 -14 44
-30 15z"/>
<path d="M392 1288 c2 -6 16 -21 31 -32 34 -25 54 -11 31 22 -16 23 -69 32
-62 10z"/>
<path d="M1477 1293 c-12 -21 -16 -62 -7 -68 18 -11 41 16 38 43 -3 25 -22 40
-31 25z"/>
<path d="M1388 1260 c-29 -22 -38 -60 -15 -60 22 0 49 36 45 60 l-3 22 -27
-22z"/>
<path d="M711 1256 c-10 -12 -8 -17 8 -25 22 -12 74 -15 84 -4 4 3 0 15 -10
25 -19 22 -66 24 -82 4z"/>
<path d="M1293 1255 c-25 -18 -31 -45 -9 -45 19 0 38 26 34 45 -3 14 -5 14
-25 0z"/>
<path d="M1157 1247 c-17 -12 -17 -14 -3 -26 13 -11 22 -11 42 -2 14 6 24 17
22 24 -6 17 -40 20 -61 4z"/>
<path d="M101 1234 c-18 -13 -20 -18 -10 -25 26 -17 78 -10 89 11 8 15 8 20
-2 20 -7 0 -22 3 -33 6 -11 2 -31 -3 -44 -12z"/>
<path d="M1713 1240 c-23 -9 -32 -40 -12 -40 20 0 49 21 49 35 0 17 -6 18 -37
5z"/>
<path d="M216 1171 c-18 -20 -18 -21 -1 -27 20 -8 70 15 67 31 -3 19 -48 16
-66 -4z"/>
<path d="M1657 1163 c-11 -11 14 -33 38 -33 29 0 38 10 24 27 -12 14 -51 18
-62 6z"/>
<path d="M92 1148 c-19 -19 -14 -38 9 -38 29 0 59 18 59 35 0 18 -51 20 -68 3z"/>
<path d="M310 1125 c-7 -9 -10 -18 -6 -22 9 -10 59 10 64 25 6 18 -43 15 -58
-3z"/>
<path d="M190 1100 c-20 -20 -26 -40 -12 -40 16 0 52 32 52 46 0 20 -16 18
-40 -6z"/>
<path d="M1560 1097 c0 -20 22 -37 47 -37 28 0 29 11 5 33 -22 20 -52 22 -52
4z"/>
<path d="M385 1080 c-18 -20 -17 -20 12 -20 30 0 59 21 46 33 -12 13 -40 7
-58 -13z"/>
<path d="M1660 1096 c0 -15 33 -33 50 -29 16 4 18 8 9 19 -10 13 -59 20 -59
10z"/>
<path d="M264 1065 c-16 -13 -17 -16 -4 -25 20 -13 23 -13 46 5 16 13 17 16 4
25 -20 13 -23 13 -46 -5z"/>
<path d="M200 1032 c-16 -5 -40 -31 -40 -44 0 -14 37 -9 50 7 15 19 9 43 -10
37z"/>
<path d="M327 1013 c-15 -14 -6 -23 23 -23 20 0 30 5 30 15 0 15 -40 21 -53 8z"/>
<path d="M242 988 c-19 -19 -14 -30 10 -26 13 2 24 11 26 21 4 20 -18 23 -36
5z"/>
<path d="M1803 483 c15 -4 17 -18 17 -109 0 -76 3 -104 13 -104 9 0 11 27 9
110 l-3 110 -27 -1 c-17 -1 -21 -3 -9 -6z"/>
<path d="M1480 465 c0 -8 5 -15 10 -15 6 0 10 7 10 15 0 8 -4 15 -10 15 -5 0
-10 -7 -10 -15z"/>
<path d="M273 463 c15 -4 17 -17 17 -99 l0 -94 65 0 c36 0 65 4 65 9 0 5 3 18
6 28 5 13 2 12 -10 -4 -13 -18 -27 -23 -62 -23 l-45 0 3 88 3 87 37 3 c28 2
40 -2 52 -20 l16 -22 0 27 0 27 -82 -1 c-46 -1 -75 -3 -65 -6z"/>
<path d="M1331 438 c0 -9 -11 -24 -23 -32 -18 -13 -19 -16 -5 -16 14 0 17 -10
17 -59 0 -44 4 -60 16 -65 25 -10 41 -6 22 5 -14 8 -18 23 -18 64 0 48 2 54
23 58 22 4 22 4 0 6 -16 1 -23 9 -26 29 -2 15 -5 19 -6 10z"/>
<path d="M519 394 c-17 -21 -2 -44 44 -67 43 -20 48 -44 12 -53 -18 -4 -32 -1
-45 11 -18 16 -20 16 -20 2 0 -20 40 -32 75 -23 20 5 25 13 25 36 0 25 -7 33
-37 48 -21 9 -38 24 -38 32 0 22 46 25 62 4 12 -17 13 -16 13 4 0 19 -6 22
-39 22 -23 0 -44 -6 -52 -16z"/>
<path d="M712 398 c-23 -23 -13 -47 28 -68 41 -21 52 -46 24 -57 -8 -3 -26 -1
-40 5 -14 7 -24 8 -24 2 0 -16 50 -23 76 -11 37 17 28 50 -21 78 -22 12 -40
28 -40 35 0 17 42 23 61 8 11 -10 14 -9 14 4 0 19 -59 23 -78 4z"/>
<path d="M902 387 c-58 -61 9 -162 74 -112 18 14 17 15 -7 6 -31 -11 -56 3
-61 34 -3 17 3 20 45 23 53 3 61 18 27 52 -26 26 -52 25 -78 -3z m68 -7 c13
-24 -3 -34 -43 -28 -21 3 -23 6 -16 26 10 28 45 29 59 2z"/>
<path d="M1078 403 c8 -3 12 -27 12 -68 0 -41 -4 -65 -12 -68 -7 -3 5 -6 27
-6 25 0 35 2 27 8 -9 5 -12 25 -10 62 3 53 4 54 33 54 30 0 30 -1 33 -57 2
-37 7 -58 15 -58 15 0 10 109 -5 128 -6 6 -20 12 -32 12 -12 0 -28 -6 -35 -12
-11 -10 -14 -10 -18 0 -3 6 -14 12 -26 11 -12 0 -16 -3 -9 -6z"/>
<path d="M1468 403 c8 -3 12 -27 12 -69 0 -44 4 -64 13 -64 9 0 11 19 9 70 -3
64 -5 70 -25 69 -12 0 -16 -3 -9 -6z"/>
<path d="M1610 388 c0 -20 1 -21 13 -4 18 25 61 18 65 -10 3 -18 -5 -24 -40
-35 -45 -15 -59 -39 -38 -64 7 -8 22 -15 34 -14 21 0 21 0 -1 9 -34 14 -29 46
8 59 18 6 34 11 35 11 9 0 3 -47 -6 -56 -6 -6 -2 -10 13 -12 21 -1 22 2 19 56
-5 70 -14 82 -63 82 -33 0 -39 -3 -39 -22z"/>
<path d="M365 376 c-16 -11 -16 -14 -2 -19 8 -3 23 0 32 7 16 11 16 14 2 19
-8 3 -23 0 -32 -7z"/>
<path d="M1201 138 c-1 -22 -6 -28 -23 -29 l-23 0 23 -10 c20 -7 23 -15 20
-46 -1 -20 2 -38 7 -40 9 -3 10 59 1 127 -3 24 -3 24 -5 -2z"/>
<path d="M737 143 c-10 -9 -9 -123 1 -123 5 0 7 13 4 29 -4 26 -1 30 24 34
l29 4 -29 2 c-26 1 -28 4 -24 31 5 32 5 33 -5 23z"/>
<path d="M795 140 c3 -5 8 -10 11 -10 2 0 4 5 4 10 0 6 -5 10 -11 10 -5 0 -7
-4 -4 -10z"/>
<path d="M872 98 c-28 -28 -3 -98 30 -85 8 4 7 6 -4 6 -19 1 -34 41 -24 66 8
22 44 18 51 -5 3 -11 4 -30 1 -43 l-6 -22 12 23 c23 45 -26 94 -60 60z"/>
<path d="M1007 92 c-10 -10 -17 -25 -17 -34 0 -19 32 -48 51 -47 8 0 4 4 -9
10 -19 7 -23 15 -20 41 2 25 8 33 23 33 16 0 21 -8 25 -40 4 -30 7 -35 13 -22
11 28 9 44 -9 61 -20 21 -37 20 -57 -2z"/>
<path d="M1287 103 c-14 -14 -6 -34 18 -45 14 -6 25 -18 25 -26 0 -10 -8 -13
-25 -10 -14 3 -25 1 -25 -4 0 -5 12 -8 28 -6 37 4 42 40 7 56 -33 15 -33 36 0
30 14 -3 25 -1 25 3 0 10 -44 12 -53 2z"/>
<path d="M1134 76 c-7 -29 11 -66 31 -66 11 0 10 5 -5 20 -14 14 -18 28 -14
45 3 14 4 25 0 25 -3 0 -8 -11 -12 -24z"/>
</g>
</svg>
