<?xml version="1.0" standalone="no"?>
<!DOCTYPE svg PUBLIC "-//W3C//DTD SVG 20010904//EN"
 "http://www.w3.org/TR/2001/REC-SVG-20010904/DTD/svg10.dtd">
<svg version="1.0" xmlns="http://www.w3.org/2000/svg"
 width="225.000000pt" height="225.000000pt" viewBox="0 0 225.000000 225.000000"
 preserveAspectRatio="xMidYMid meet">

<g transform="translate(0.000000,225.000000) scale(0.100000,-0.100000)"
fill="#fff" stroke="none">
<path d="M1105 2118 c-3 -8 -4 -66 -3 -129 3 -106 4 -114 23 -114 19 0 20 7
20 125 0 111 -2 125 -18 128 -9 2 -19 -3 -22 -10z"/>
<path d="M617 1994 c-14 -15 -6 -38 48 -130 39 -65 61 -94 74 -94 35 0 29 28
-27 126 -53 91 -77 116 -95 98z"/>
<path d="M1593 1988 c-31 -38 -111 -192 -106 -204 3 -8 14 -14 24 -14 22 0
132 180 127 208 -4 21 -31 27 -45 10z"/>
<path d="M952 1780 c-115 -30 -206 -83 -300 -175 -58 -57 -81 -86 -77 -97 13
-34 35 -26 97 38 82 85 153 131 258 168 74 26 99 29 195 29 96 0 121 -3 195
-29 105 -37 176 -83 258 -168 61 -63 84 -72 96 -40 6 16 -50 83 -118 141 -156
133 -399 186 -604 133z"/>
<path d="M253 1624 c-8 -21 7 -34 110 -92 89 -51 117 -56 117 -21 0 13 -29 35
-94 74 -99 58 -123 65 -133 39z"/>
<path d="M990 1624 c-63 -17 -169 -72 -184 -96 -7 -12 -6 -21 3 -31 10 -13 23
-10 99 29 155 79 280 79 434 0 76 -39 89 -42 99 -29 19 22 2 42 -67 80 -112
61 -262 80 -384 47z"/>
<path d="M1863 1584 c-64 -37 -93 -61 -93 -73 0 -35 28 -29 126 27 73 42 99
62 99 77 0 35 -37 27 -132 -31z"/>
<path d="M182 1411 c-8 -5 -12 -17 -10 -27 3 -18 31 -19 953 -19 922 0 950 1
953 19 2 10 -2 22 -10 27 -17 11 -1869 11 -1886 0z"/>
<path d="M114 1227 c-2 -7 -3 -58 -2 -113 3 -94 4 -99 26 -102 20 -3 22 1 22
42 0 46 0 46 35 46 28 0 35 4 35 20 0 16 -7 20 -35 20 -32 0 -35 2 -35 30 0
28 3 30 35 30 28 0 35 4 35 20 0 18 -7 20 -55 20 -37 0 -57 -4 -61 -13z"/>
<path d="M272 1145 c3 -108 12 -123 75 -132 32 -4 45 -1 69 20 28 24 29 28 29
114 0 84 -1 88 -22 91 -22 3 -23 0 -23 -73 0 -83 -11 -115 -38 -115 -34 0 -42
22 -42 107 0 83 0 83 -26 83 l-26 0 4 -95z"/>
<path d="M512 1224 c-15 -10 -22 -25 -22 -48 0 -32 24 -66 47 -66 19 0 42 -35
34 -49 -7 -10 -20 -12 -50 -7 -36 5 -41 4 -41 -13 0 -32 79 -43 118 -15 18 12
22 24 20 52 -2 30 -10 41 -45 65 -52 34 -49 60 6 55 26 -2 36 1 39 13 6 30
-69 39 -106 13z"/>
<path d="M650 1226 c0 -8 5 -18 10 -21 6 -3 10 -39 10 -80 0 -41 -4 -77 -10
-80 -5 -3 -10 -13 -10 -21 0 -10 12 -14 44 -14 49 0 68 16 43 35 -24 17 -24
143 0 160 25 19 6 35 -43 35 -32 0 -44 -4 -44 -14z"/>
<path d="M824 1228 c-46 -22 -65 -115 -35 -170 29 -55 106 -64 152 -19 25 26
29 37 29 86 0 49 -4 60 -29 86 -31 31 -76 38 -117 17z m86 -47 c5 -11 10 -36
10 -56 0 -48 -16 -75 -44 -75 -34 0 -48 22 -48 75 0 25 6 52 12 60 18 21 57
18 70 -4z"/>
<path d="M1020 1125 c0 -108 1 -115 20 -115 18 0 20 7 21 83 l0 82 42 -83 c40
-78 44 -83 72 -80 l30 3 0 110 c0 103 -1 110 -20 110 -18 0 -20 -7 -20 -78 0
-42 -1 -77 -2 -77 -2 0 -21 36 -43 80 -37 73 -43 80 -70 80 l-30 0 0 -115z"/>
<path d="M1334 1227 c-2 -7 -3 -58 -2 -113 3 -94 4 -99 26 -102 20 -3 22 1 22
42 0 46 0 46 35 46 28 0 35 4 35 20 0 16 -7 20 -35 20 -32 0 -35 2 -35 30 0
28 2 30 41 30 33 0 40 3 37 18 -2 13 -15 18 -61 20 -41 2 -59 -1 -63 -11z"/>
<path d="M1519 1211 c-25 -26 -29 -37 -29 -86 0 -49 4 -60 29 -86 32 -31 71
-38 114 -18 34 15 50 50 50 104 0 54 -16 89 -50 104 -43 20 -82 13 -114 -18z
m99 -23 c16 -16 16 -110 0 -126 -18 -18 -56 -14 -68 7 -5 11 -10 36 -10 56 0
20 5 45 10 56 12 21 50 25 68 7z"/>
<path d="M1770 1227 c-76 -38 -62 -194 19 -212 76 -16 131 29 131 108 0 92
-73 143 -150 104z m84 -49 c32 -45 9 -128 -34 -128 -25 0 -50 37 -50 75 0 64
53 98 84 53z"/>
<path d="M1968 1234 c-5 -4 -8 -57 -8 -117 l0 -110 56 6 c70 7 100 27 114 75
15 48 2 100 -31 124 -26 19 -119 35 -131 22z m91 -44 c23 -12 34 -62 20 -97
-12 -31 -26 -43 -51 -43 -16 0 -18 10 -18 75 0 79 7 88 49 65z"/>
<path d="M177 883 c-15 -15 -6 -43 16 -48 12 -3 441 -4 952 -3 l930 3 0 25 0
25 -946 3 c-520 1 -949 -1 -952 -5z"/>
<path d="M363 718 c-103 -58 -118 -71 -110 -92 10 -26 34 -19 133 39 65 39 94
61 94 74 0 35 -28 30 -117 -21z"/>
<path d="M586 754 c-11 -10 -13 -21 -8 -31 15 -26 116 -124 157 -153 209 -143
483 -160 708 -43 86 45 242 189 232 215 -13 34 -35 26 -97 -38 -82 -85 -153
-131 -258 -168 -74 -26 -99 -29 -195 -29 -96 0 -121 3 -195 29 -106 37 -176
83 -259 168 -35 37 -64 66 -66 66 -2 0 -11 -7 -19 -16z"/>
<path d="M809 753 c-19 -22 -2 -42 67 -80 76 -42 161 -63 249 -63 88 0 173 21
249 63 69 38 86 58 67 80 -10 13 -23 10 -99 -29 -156 -79 -278 -79 -434 0 -76
39 -89 42 -99 29z"/>
<path d="M1783 763 c-7 -3 -13 -13 -13 -24 0 -22 180 -132 208 -127 32 6 25
36 -15 61 -82 51 -169 94 -180 90z"/>
<path d="M665 385 c-58 -97 -65 -130 -30 -130 15 0 35 26 77 99 56 98 62 126
27 126 -13 0 -35 -29 -74 -95z"/>
<path d="M1487 466 c-5 -14 81 -176 108 -205 16 -17 45 -8 45 15 0 9 -25 58
-55 110 -39 65 -61 94 -74 94 -10 0 -21 -6 -24 -14z"/>
<path d="M1105 368 c-3 -8 -4 -66 -3 -129 3 -106 4 -114 23 -114 19 0 20 7 20
125 0 111 -2 125 -18 128 -9 2 -19 -3 -22 -10z"/>
</g>
</svg>
