<?xml version="1.0" standalone="no"?>
<!DOCTYPE svg PUBLIC "-//W3C//DTD SVG 20010904//EN"
 "http://www.w3.org/TR/2001/REC-SVG-20010904/DTD/svg10.dtd">
<svg version="1.0" xmlns="http://www.w3.org/2000/svg"
 width="261.000000pt" height="193.000000pt" viewBox="0 0 261.000000 193.000000"
 preserveAspectRatio="xMidYMid meet">

<g transform="translate(0.000000,193.000000) scale(0.100000,-0.100000)"
fill="#fff" stroke="none">
<path d="M2025 1882 c-55 -26 -143 -70 -195 -99 -177 -95 -475 -259 -510 -281
-24 -15 -51 -22 -87 -22 -41 0 -67 -9 -136 -45 -47 -25 -99 -45 -114 -45 -16
0 -38 -7 -49 -15 -10 -8 -36 -15 -56 -15 -25 0 -41 -6 -50 -19 -8 -11 -35 -25
-61 -32 -54 -13 -53 -32 1 -24 37 5 26 -4 -21 -19 -32 -10 -7 -28 32 -22 l36
5 -40 -18 c-32 -15 -37 -20 -22 -26 9 -4 28 -4 42 -1 14 4 25 2 25 -3 0 -5
-14 -12 -30 -16 -45 -10 -36 -27 12 -23 32 2 44 -1 46 -12 2 -12 -26 -22 -125
-45 -373 -84 -601 -212 -686 -385 -28 -56 -32 -74 -31 -140 1 -60 7 -86 27
-125 29 -58 103 -138 168 -182 138 -95 371 -183 595 -226 152 -30 199 -34 399
-42 421 -17 779 47 1080 194 121 60 149 78 209 137 92 92 118 146 119 244 2
97 -27 162 -110 251 -102 108 -298 200 -562 264 -167 41 -323 57 -610 62
l-265 4 -1 25 c-1 32 3 34 110 68 50 16 98 35 108 44 9 9 25 40 33 70 18 61
38 81 132 135 196 111 341 169 567 226 100 26 125 36 148 61 46 51 34 140 -20
140 -4 0 -53 -21 -108 -48z m126 -45 c-6 -14 -20 -33 -33 -41 -28 -18 -188
-67 -188 -58 0 4 39 21 88 37 78 27 89 34 107 67 22 41 42 37 26 -5z m-1061
-452 c-48 -26 -60 -29 -60 -17 0 9 69 40 90 41 8 0 -5 -11 -30 -24z m200 5 c0
-21 -30 -69 -52 -84 -33 -23 -45 -19 -15 4 14 11 32 36 38 55 12 33 29 47 29
25z m-288 -22 c20 -15 38 -108 38 -192 0 -36 11 -97 26 -148 24 -84 29 -161
10 -156 -5 2 -9 23 -7 48 1 26 -7 71 -19 105 -13 37 -24 102 -29 171 -7 109
-25 164 -52 164 -6 0 -7 5 -4 10 8 13 18 13 37 -2z m138 4 c0 -5 -17 -14 -37
-21 -21 -7 -45 -15 -53 -18 -11 -4 -12 -2 -5 5 8 9 62 33 93 41 1 1 2 -3 2 -7z
m-259 -65 c-6 -6 -11 -25 -12 -41 0 -31 0 -31 -10 -6 -7 17 -7 32 1 48 8 18 8
23 -2 19 -20 -6 -14 -84 11 -151 19 -52 21 -64 11 -112 -6 -29 -16 -57 -22
-60 -8 -5 -9 1 -4 17 20 71 18 124 -8 188 -31 78 -32 95 -6 121 19 19 22 19
37 5 12 -12 13 -19 4 -28z m93 21 c20 -28 20 -86 2 -152 -8 -28 -19 -67 -24
-86 l-10 -35 -1 43 c-1 23 6 59 14 79 19 46 19 106 0 143 -18 35 -3 40 19 8z
m-40 -7 c22 -24 31 -83 17 -107 -9 -16 -10 -13 -11 21 0 22 -9 55 -20 73 -22
35 -13 43 14 13z m211 10 c-14 -13 -85 -34 -92 -27 -3 3 5 9 18 14 13 5 31 12
39 15 24 9 45 8 35 -2z m9 -32 c-7 -12 -66 -39 -84 -39 -25 0 -6 19 33 33 54
19 60 19 51 6z m-235 -25 c17 -37 8 -39 -13 -4 -9 17 -13 30 -8 30 5 0 14 -12
21 -26z m-14 -41 c4 -16 11 -66 16 -113 4 -47 11 -96 15 -109 5 -16 4 -22 -4
-18 -11 8 -18 41 -31 157 -5 41 -12 83 -16 93 -4 9 -3 17 3 17 5 0 13 -12 17
-27z m98 -61 c-3 -12 -10 -22 -15 -22 -5 0 -7 3 -5 8 2 4 7 16 11 26 9 25 17
16 9 -12z m409 -42 c119 -5 248 -14 285 -20 37 -5 86 -12 108 -14 124 -13 290
-65 444 -137 142 -67 214 -121 265 -198 116 -175 68 -342 -137 -477 -194 -128
-468 -216 -757 -243 -144 -14 -479 -14 -626 -1 -428 38 -847 228 -935 425 -43
99 -31 195 39 299 67 100 217 192 436 267 115 40 335 84 314 64 -3 -3 -76 -23
-162 -45 -413 -104 -631 -278 -612 -490 8 -86 52 -150 160 -232 172 -130 446
-224 751 -259 157 -17 522 -15 675 5 347 44 632 160 794 321 54 55 77 102 83
174 13 149 -98 278 -333 387 -225 104 -515 154 -911 157 -128 1 -233 5 -233 9
0 4 26 9 58 11 31 2 62 4 67 5 6 1 108 -3 227 -8z m-404 -12 c-6 -18 -28 -21
-28 -4 0 9 7 16 16 16 9 0 14 -5 12 -12z m692 -67 c213 -33 396 -90 539 -169
166 -92 254 -253 206 -379 -30 -79 -133 -172 -256 -232 -112 -54 -280 -106
-461 -143 -104 -21 -139 -23 -428 -23 -291 0 -323 2 -425 24 -317 67 -510 147
-623 259 -83 82 -108 135 -99 216 10 95 90 200 207 271 80 48 241 111 361 140
125 30 122 30 109 5 -6 -11 -21 -20 -34 -20 -26 0 -174 -46 -191 -59 -5 -5
-26 -12 -45 -16 -19 -4 -52 -16 -72 -26 -21 -11 -49 -19 -64 -19 -38 0 -89
-35 -116 -78 -12 -20 -35 -48 -50 -60 -16 -13 -28 -29 -28 -36 0 -7 -11 -22
-25 -34 -48 -42 -20 -115 44 -115 26 0 30 -4 35 -40 8 -48 52 -92 107 -107 37
-10 39 -13 39 -49 0 -68 71 -104 233 -117 78 -6 94 -11 153 -46 120 -72 199
-85 296 -48 34 13 56 16 62 10 6 -6 37 -10 70 -10 33 0 85 -5 116 -12 47 -9
64 -9 105 5 33 12 52 14 59 7 27 -27 234 -1 301 39 20 11 53 21 74 21 38 0 61
17 74 51 4 13 15 15 56 11 43 -4 61 0 114 26 35 18 71 40 81 51 9 10 46 33 81
50 35 18 75 45 89 62 30 36 50 102 41 138 -8 30 -43 71 -61 71 -8 0 -20 12
-28 28 -21 39 -112 122 -134 122 -11 0 -29 16 -43 37 -23 37 -36 46 -111 77
-42 19 -110 21 -140 5 -18 -10 -24 -7 -45 20 -33 41 -72 61 -125 61 -24 0 -63
7 -87 15 -23 9 -71 16 -105 17 -88 2 -277 -1 -383 -5 -67 -2 -94 0 -97 9 -7
19 45 23 284 18 142 -3 257 -10 340 -23z m-672 -19 l10 -28 -39 19 c-41 20
-43 37 -4 37 16 0 26 -8 33 -28z m432 8 c11 -7 -1 -9 -40 -9 -42 1 -49 3 -30
9 35 11 53 11 70 0z m-564 -37 c-11 -11 -17 4 -9 23 7 18 8 18 11 1 2 -10 1
-21 -2 -24z m334 17 c28 -28 33 -61 19 -111 l-13 -44 -6 62 c-4 46 -11 68 -29
87 -20 21 -21 26 -8 26 9 0 26 -9 37 -20z m122 4 c48 -14 68 -15 115 -5 120
24 217 8 259 -42 40 -48 29 -65 -13 -20 -61 65 -129 76 -245 43 -39 -12 -57
-12 -100 -1 -29 6 -68 15 -85 18 -18 3 -33 9 -33 14 0 14 37 11 102 -7z m-167
-18 c23 -23 44 -91 31 -103 -3 -3 -10 7 -16 23 -6 16 -16 34 -23 39 -7 6 -23
23 -36 38 l-24 27 22 0 c12 0 33 -11 46 -24z m-186 -2 c25 -18 51 -71 51 -104
0 -32 -17 -15 -24 24 -4 21 -19 45 -36 60 -44 37 -37 52 9 20z m140 -27 c31
-52 34 -128 11 -280 -25 -166 -20 -198 42 -251 23 -20 52 -36 64 -36 13 0 26
-4 29 -10 9 -15 -19 -12 -65 6 -50 20 -106 90 -115 143 -4 25 0 64 12 108 12
46 18 105 18 185 0 107 -2 118 -22 140 -26 28 -29 40 -8 32 8 -3 23 -20 34
-37z m654 19 c39 -16 95 -78 77 -84 -6 -2 -24 10 -38 28 -16 19 -41 34 -61 39
-19 3 -36 12 -39 19 -5 16 21 15 61 -2z m-426 -18 c44 -10 61 -9 112 5 33 9
79 17 101 17 43 0 120 -33 120 -51 0 -6 -6 -9 -12 -6 -86 32 -130 40 -163 29
-64 -24 -132 -26 -195 -7 -33 10 -60 22 -60 28 0 5 10 7 23 3 12 -3 45 -11 74
-18z m-507 2 c-8 -5 -27 -10 -42 -10 -15 0 -39 -5 -54 -10 -25 -10 -44 -7 -32
6 6 6 88 21 123 23 16 1 17 -1 5 -9z m150 -61 c0 -10 -2 -19 -5 -19 -6 0 -45
76 -45 87 1 17 50 -49 50 -68z m-97 54 c-7 -2 -19 -2 -25 0 -7 3 -2 5 12 5 14
0 19 -2 13 -5z m765 -44 c52 -13 102 -47 102 -69 0 -7 -15 -3 -34 9 -19 12
-56 28 -83 36 -27 8 -60 27 -74 41 l-24 27 30 -15 c17 -9 54 -21 83 -29z
m-745 7 l32 -14 -45 5 c-114 10 -136 15 -115 24 24 10 85 3 128 -15z m427 1
c41 -13 69 -26 63 -30 -6 -4 -31 2 -54 13 -24 11 -54 20 -66 20 -12 0 -25 5
-28 10 -9 14 0 13 85 -13z m203 -23 c42 -45 48 -48 126 -60 58 -9 92 -21 119
-40 42 -30 122 -125 122 -144 0 -7 -18 10 -40 37 -48 61 -105 100 -167 114
-112 26 -125 31 -168 73 -39 36 -57 66 -41 66 3 0 25 -21 49 -46z m21 17 c15
-15 45 -34 67 -40 52 -16 44 -26 -8 -12 -35 10 -121 81 -97 81 6 0 23 -13 38
-29z m221 9 c18 -20 17 -20 -7 -20 -17 0 -27 7 -31 20 -3 12 0 20 7 20 7 0 21
-9 31 -20z m-1105 -8 c-14 -9 -40 -32 -57 -51 -39 -41 -44 -26 -7 18 14 17 21
31 16 31 -16 0 -72 -72 -72 -92 0 -9 -4 -20 -10 -23 -14 -9 -12 20 4 58 15 38
59 70 84 63 9 -3 24 -1 32 4 26 17 36 10 10 -8z m422 -42 c4 -44 -7 -98 -33
-152 -13 -29 -36 -40 -25 -13 19 51 37 129 39 173 2 60 13 56 19 -8z m377 46
c-12 -10 -49 -16 -49 -7 0 5 10 11 23 13 22 4 34 1 26 -6z m-301 -56 c6 -25
16 -59 23 -77 15 -37 5 -79 -23 -97 -27 -17 -34 2 -10 27 25 27 28 63 8 92
-14 21 -29 123 -16 108 4 -4 12 -28 18 -53z m854 34 c34 -18 68 -66 67 -96 0
-18 -4 -14 -19 19 -27 61 -56 76 -134 71 -67 -4 -78 5 -23 21 35 10 68 5 109
-15z m-1332 0 c-8 -8 -23 -20 -34 -25 -15 -7 -13 -3 7 15 31 29 47 35 27 10z
m590 -39 c15 -32 22 -66 24 -118 1 -51 7 -82 19 -100 10 -15 13 -27 7 -27 -20
0 -38 47 -44 120 -4 44 -15 91 -26 113 -22 41 -25 57 -11 57 5 0 19 -20 31
-45z m50 30 c25 -13 41 -35 26 -35 -8 0 -76 42 -76 46 0 8 22 3 50 -11z m155
6 c3 -6 -10 -13 -30 -17 -22 -4 -46 -19 -65 -40 -16 -19 -30 -28 -30 -21 0 25
40 66 73 76 43 12 45 12 52 2z m-517 -26 c49 -25 38 -37 -14 -15 -59 26 -157
26 -221 2 -44 -17 -98 -49 -196 -118 -65 -47 -51 -18 20 39 74 60 132 92 190
107 54 13 182 5 221 -15z m880 4 c12 -5 34 -21 47 -35 30 -33 35 -103 8 -125
-15 -13 -16 -11 -9 11 18 58 17 66 -7 92 -14 15 -44 32 -68 38 -24 7 -50 14
-56 16 -7 2 -13 8 -13 14 0 11 54 5 98 -11z m-1322 4 c-13 -14 -96 -41 -96
-32 0 5 1 9 3 9 1 0 20 7 42 15 45 16 62 19 51 8z m1500 -24 c13 -12 24 -30
24 -38 0 -10 -9 -4 -26 17 -23 29 -30 32 -82 32 -42 0 -53 3 -42 11 24 16 99
4 126 -22z m-521 11 c3 -5 -13 -14 -35 -20 -102 -28 -93 -160 12 -176 21 -4
38 -10 38 -15 0 -14 -49 -10 -86 7 -56 27 -74 126 -32 171 12 13 36 27 52 32
42 12 44 12 51 1z m615 -28 c10 -17 15 -43 13 -57 -6 -31 -23 -23 -23 11 0 14
-7 39 -16 56 -11 21 -12 29 -3 26 7 -2 20 -18 29 -36z m-780 -17 c-1 -19 -2
-19 -20 4 -26 30 -26 45 0 29 11 -7 20 -22 20 -33z m-505 25 c4 -6 -10 -10
-35 -10 -50 0 -76 -13 -177 -88 -77 -58 -92 -66 -145 -82 -41 -12 -34 4 7 19
20 7 65 35 101 62 107 82 229 131 249 99z m55 -22 c27 -44 25 -70 -6 -107 -31
-37 -69 -41 -108 -10 -34 27 -28 34 10 14 41 -21 70 -19 88 7 21 30 20 56 -4
96 -11 17 -15 32 -10 32 6 0 19 -15 30 -32z m45 22 c18 -8 17 -9 -7 -9 -16 -1
-28 4 -28 9 0 12 8 12 35 0z m322 -31 c11 -32 18 -148 8 -138 -2 3 -11 36 -19
75 -8 38 -18 77 -22 88 -5 14 -3 17 7 14 8 -2 19 -20 26 -39z m748 12 c3 -5 0
-13 -6 -16 -10 -7 -38 21 -39 38 0 9 36 -9 45 -22z m-1597 -13 c2 -15 -1 -35
-7 -45 -8 -14 -10 -10 -8 22 2 35 0 40 -18 37 -30 -6 -52 -29 -80 -86 -27 -57
-34 -48 -9 14 31 77 115 117 122 58z m112 25 c0 -16 -35 -43 -57 -43 -31 0
-29 16 5 34 29 16 52 20 52 9z m1280 -9 c0 -9 -5 -14 -12 -12 -18 6 -21 28 -4
28 9 0 16 -7 16 -16z m155 -7 c8 -13 18 -59 21 -103 7 -87 21 -122 59 -152 14
-11 25 -25 25 -31 0 -26 -34 -3 -69 47 -18 26 -24 51 -28 115 -4 56 -12 92
-25 115 -22 36 -7 45 17 9z m-920 3 c-6 -10 -70 -30 -97 -30 -30 0 -20 20 10
21 15 0 36 4 47 9 27 12 47 12 40 0z m464 -11 c-6 -12 -9 -37 -7 -55 2 -21 0
-33 -6 -31 -18 6 -18 54 0 81 20 31 29 34 13 5z m44 -1 c-4 -13 -7 -38 -6 -56
2 -33 -10 -35 -26 -4 -6 11 -4 29 4 50 16 37 41 45 28 10z m297 -9 c0 -27 -2
-30 -15 -19 -8 7 -15 21 -15 31 0 11 7 19 15 19 10 0 15 -10 15 -31z m-375 4
c-30 -70 -11 -108 50 -100 32 4 49 15 83 52 23 26 42 41 42 33 -1 -34 -95
-108 -138 -108 -30 0 -78 25 -86 45 -10 27 -7 41 15 69 23 30 45 35 34 9z
m-1085 -8 c0 -9 -9 -15 -22 -15 -22 1 -23 1 -4 15 25 19 26 19 26 0z m471 5
c10 -6 19 -15 19 -21 0 -6 -10 -3 -22 5 -50 35 -134 3 -237 -89 -42 -38 -92
-65 -118 -64 -10 0 4 11 31 24 26 13 73 44 103 67 30 24 71 53 91 65 39 24
100 30 133 13z m746 2 c8 -5 6 -13 -7 -30 -30 -37 -51 -23 -34 22 7 17 22 20
41 8z m291 -41 c-5 -40 -23 -31 -26 13 -3 36 -2 38 13 26 9 -8 15 -24 13 -39z
m-853 10 c-5 -17 -9 -19 -31 -9 l-25 12 28 11 c33 14 37 13 28 -14z m-185 -12
c0 -12 -4 -11 -35 3 -35 16 -31 29 5 17 17 -6 30 -15 30 -20z m310 1 c0 -16
-4 -30 -8 -30 -5 0 -7 14 -4 30 2 17 6 30 8 30 2 0 4 -13 4 -30z m70 -9 c0
-48 29 -126 62 -171 77 -100 84 -130 48 -207 -28 -62 -41 -53 -18 11 27 72 19
106 -37 181 -25 33 -49 74 -54 90 -13 42 -20 135 -9 129 4 -3 8 -18 8 -33z
m146 -59 c9 -58 -1 -121 -21 -141 -16 -15 -17 -13 -10 24 12 59 7 134 -10 158
-8 12 -15 31 -15 42 0 36 48 -35 56 -83z m314 88 c0 -20 -33 -60 -73 -90 -59
-43 -78 -37 -26 9 24 21 51 50 58 65 14 26 41 36 41 16z m389 -16 c17 -14 31
-31 31 -37 0 -6 -9 -1 -21 12 -24 26 -67 44 -86 37 -7 -3 -13 -1 -13 4 0 20
59 9 89 -16z m136 0 c19 -14 19 -14 0 -14 -36 0 -65 12 -65 27 0 16 31 10 65
-13z m-1742 -42 c-66 -79 -122 -128 -158 -136 l-30 -7 35 22 c19 12 69 57 110
100 88 92 113 105 43 21z m502 11 c8 -20 15 -57 15 -84 0 -42 -5 -53 -38 -89
-41 -42 -54 -46 -96 -30 -48 18 -92 130 -51 130 10 0 15 -10 15 -34 0 -25 7
-40 26 -55 35 -28 56 -26 93 5 27 22 31 33 31 73 0 27 -8 63 -20 86 -24 47
-24 46 -5 38 9 -3 22 -21 30 -40z m-515 27 c0 -5 -7 -10 -15 -10 -8 0 -15 5
-15 10 0 6 7 10 15 10 8 0 15 -4 15 -10z m280 -9 c-13 -26 -13 -123 1 -158 7
-15 15 -82 18 -149 6 -112 9 -124 34 -157 44 -59 89 -87 156 -98 71 -13 85
-35 16 -26 -82 12 -176 74 -201 134 -8 19 -14 70 -14 125 -1 66 -6 109 -20
148 -11 30 -19 73 -20 96 0 46 17 104 31 104 6 0 5 -8 -1 -19z m97 -11 c13 0
23 -4 23 -10 0 -5 -10 -10 -23 -10 -25 0 -67 26 -67 41 0 6 10 3 22 -5 12 -9
33 -16 45 -16z m888 -8 c-3 -21 -1 -50 5 -66 8 -21 7 -27 -2 -24 -29 10 -35
128 -7 128 7 0 8 -14 4 -38z m-1365 18 c-20 -13 -43 -13 -35 0 3 6 16 10 28
10 18 0 19 -2 7 -10z m1403 -52 c-3 -67 -3 -67 -13 -43 -10 24 -13 89 -4 98
14 14 19 -3 17 -55z m249 2 c3 -42 11 -69 27 -91 13 -17 20 -34 16 -37 -19
-19 -65 82 -65 143 0 66 17 55 22 -15z m37 -43 c14 -14 14 -27 1 -27 -12 0
-30 66 -29 105 1 21 4 16 10 -19 4 -27 13 -54 18 -59z m-1029 72 c0 -14 -17
-10 -23 5 -4 10 -1 13 9 9 7 -3 14 -9 14 -14z m1039 -16 c-1 -38 -1 -38 -9 -9
-8 27 -6 46 6 46 2 0 4 -17 3 -37z m174 -13 c37 -41 37 -88 -2 -129 -26 -28
-51 -40 -51 -25 0 4 14 22 30 41 17 18 30 43 30 54 0 27 -53 79 -79 79 -12 0
-21 6 -21 14 0 24 61 1 93 -34z m-1293 14 c0 -8 -7 -14 -15 -14 -17 0 -18 2
-9 24 7 18 24 12 24 -10z m146 0 c-4 -9 -9 -15 -11 -12 -3 3 -3 13 1 22 4 9 9
15 11 12 3 -3 3 -13 -1 -22z m708 -18 c-8 -34 -24 -34 -20 2 2 15 4 31 5 37 1
5 5 5 12 -2 5 -5 7 -22 3 -37z m140 -1 c-23 -36 -29 -24 -8 17 9 18 19 28 21
21 2 -6 -3 -23 -13 -38z m-1509 26 c-6 -5 -37 -11 -70 -15 -56 -5 -58 -5 -35
9 27 15 121 21 105 6z m232 -33 c-23 -24 -49 -58 -56 -75 -7 -18 -17 -33 -22
-33 -41 0 67 148 108 150 7 0 -7 -19 -30 -42z m1647 -23 c26 -54 21 -114 -15
-169 -16 -27 -33 -46 -36 -43 -3 4 6 20 21 37 43 52 36 136 -17 214 l-20 29
26 -17 c14 -10 32 -32 41 -51z m-965 -5 c1 -13 0 -13 -9 0 -5 8 -9 26 -9 40
l1 25 8 -25 c4 -14 8 -32 9 -40z m341 45 c0 -8 -15 -22 -32 -31 l-33 -16 30
31 c35 35 35 35 35 16z m-1430 -10 c0 -8 -7 -15 -16 -15 -14 0 -14 3 -4 15 7
8 14 15 16 15 2 0 4 -7 4 -15z m1576 -30 c-7 -28 -59 -65 -92 -65 -12 0 -32 9
-45 21 -23 19 -23 20 -2 10 41 -20 80 -13 102 18 12 16 21 37 21 47 0 13 3 15
11 7 7 -7 9 -23 5 -38z m268 -66 c4 -100 1 -129 -13 -129 -6 0 -7 113 -3 204
4 72 13 29 16 -75z m86 80 c13 -23 13 -66 0 -74 -6 -4 -10 7 -10 27 0 19 -7
43 -15 56 -14 20 -14 21 0 16 8 -4 20 -15 25 -25z m-1785 11 c-3 -5 -23 -10
-43 -9 -30 0 -33 2 -17 9 28 12 67 12 60 0z m293 -17 c-2 -10 -11 -19 -21 -21
-16 -3 -17 -1 -5 17 16 25 31 27 26 4z m253 7 c5 0 9 -4 9 -10 0 -5 -21 -10
-47 -10 -47 1 -47 1 -23 15 14 8 31 12 38 10 8 -3 18 -5 23 -5z m269 4 c0 -3
-13 -19 -30 -35 -16 -17 -36 -51 -44 -77 -10 -32 -15 -39 -15 -22 0 62 14 100
44 119 31 20 45 25 45 15z m-440 -8 c0 -2 -7 -7 -16 -10 -8 -3 -12 -2 -9 4 6
10 25 14 25 6z m280 -33 c-29 -33 -32 -41 -28 -85 6 -55 -7 -64 -20 -15 -14
52 26 137 66 137 9 0 2 -13 -18 -37z m875 -23 c-14 -22 -28 -54 -32 -70 -3
-17 -9 -30 -14 -30 -11 0 4 47 36 110 16 30 30 50 32 43 2 -6 -7 -30 -22 -53z
m-235 40 c0 -5 -2 -10 -4 -10 -3 0 -8 5 -11 10 -3 6 -1 10 4 10 6 0 11 -4 11
-10z m170 -7 c0 -25 -16 -47 -28 -39 -7 4 -6 14 1 31 14 29 27 33 27 8z
m-1540 -3 c10 -7 0 -8 -33 -4 -38 5 -51 3 -67 -11 -11 -10 -20 -24 -20 -31 0
-19 33 -34 61 -27 18 4 21 3 13 -6 -15 -16 -70 -17 -89 -1 -27 22 -19 59 18
75 37 17 95 19 117 5z m450 -5 c-7 -9 -15 -13 -17 -11 -7 7 7 26 19 26 6 0 6
-6 -2 -15z m1376 0 c10 -8 14 -15 7 -15 -19 0 -43 11 -43 21 0 13 14 11 36 -6z
m71 -22 c-3 -10 -5 -4 -5 12 0 17 2 24 5 18 2 -7 2 -21 0 -30z m-1298 21 c50
-10 36 -19 -29 -19 -58 0 -78 9 -42 18 27 7 37 7 71 1z m266 -42 c-18 -27 -27
-55 -28 -87 -2 -41 2 -50 31 -76 18 -16 43 -29 57 -29 14 0 25 -4 25 -9 0 -11
-44 0 -79 18 -60 33 -68 127 -16 195 36 48 44 39 10 -12z m137 -17 c10 -18 10
-19 -6 -6 -10 8 -24 28 -32 45 l-15 31 21 -25 c11 -14 26 -34 32 -45z m121 49
c19 -7 23 -24 6 -24 -17 0 -49 20 -49 31 0 6 6 8 13 5 6 -3 20 -9 30 -12z
m216 -15 c13 -17 25 -50 27 -73 l4 -41 -10 39 c-6 22 -22 55 -36 73 -14 18
-21 33 -16 33 4 0 19 -14 31 -31z m-1145 -44 c34 -35 75 -71 91 -79 l30 -16
-28 0 c-18 0 -38 10 -55 28 -15 16 -44 47 -66 70 -21 23 -45 42 -52 42 -8 0
-14 5 -14 10 0 26 38 4 94 -55z m1111 39 c25 -39 44 -99 35 -114 -5 -8 -10 3
-15 29 -4 25 -19 57 -37 77 -21 23 -25 34 -15 34 8 0 22 -12 32 -26z m252 -19
c-18 -35 -32 -17 -15 20 7 15 15 22 21 16 5 -5 3 -20 -6 -36z m509 -54 c-3
-25 -14 -57 -24 -71 -19 -25 -107 -90 -123 -90 -20 0 -7 16 31 38 80 46 122
139 85 188 -25 33 -16 41 11 10 23 -26 25 -36 20 -75z m-2082 81 c6 -10 -63
-34 -76 -26 -5 3 -4 12 3 20 12 15 65 19 73 6z m252 -8 c-3 -9 -6 -20 -6 -25
0 -15 -17 -10 -24 8 -4 9 -1 20 6 25 21 12 31 9 24 -8z m111 10 c-3 -3 -12 -4
-19 -1 -8 3 -5 6 6 6 11 1 17 -2 13 -5z m395 -39 c-4 -47 -16 -59 -27 -26 -6
20 10 71 22 71 5 0 7 -20 5 -45z m520 28 c29 -33 48 -82 48 -123 0 -22 -4 -40
-10 -40 -5 0 -10 11 -10 25 0 42 -47 124 -75 131 -14 3 -22 10 -19 15 9 15 50
10 66 -8z m-896 -68 c-31 -91 -16 -185 38 -234 31 -29 34 -46 5 -31 -11 6 -34
32 -50 58 -23 37 -29 57 -29 102 0 50 21 148 38 175 14 22 12 -27 -2 -70z m90
38 c-11 -11 -19 6 -11 24 8 17 8 17 12 0 3 -10 2 -21 -1 -24z m454 32 c0 -3
-9 -14 -19 -24 -21 -21 -37 -81 -28 -105 11 -29 52 -47 80 -37 21 8 25 7 20
-4 -3 -9 -18 -15 -35 -15 -36 0 -78 42 -78 78 0 30 37 112 51 112 5 0 9 -2 9
-5z m730 -18 c0 -19 58 -85 80 -92 22 -7 28 -35 7 -35 -14 0 -63 49 -90 90
-19 27 -23 65 -7 55 6 -3 10 -12 10 -18z m177 17 c-3 -3 -12 -4 -19 -1 -8 3
-5 6 6 6 11 1 17 -2 13 -5z m-1698 -18 c31 -16 65 -62 56 -75 -3 -5 -19 4 -37
21 -17 16 -44 32 -60 35 -23 4 -26 8 -17 19 14 18 23 17 58 0z m501 4 c0 -6
-19 -7 -47 -3 -65 8 -67 13 -5 13 29 0 52 -4 52 -10z m459 -40 c-11 -49 -24
-69 -31 -48 -5 13 30 103 37 96 2 -2 -1 -24 -6 -48z m172 -21 c62 -123 9 -290
-100 -312 -14 -3 -43 -17 -64 -31 -21 -14 -46 -26 -55 -26 -9 0 22 22 70 48
102 56 126 76 144 119 30 70 7 183 -48 241 l-33 34 32 -16 c19 -10 41 -33 54
-57z m275 19 c12 -23 12 -28 1 -28 -11 0 -47 58 -47 77 0 12 32 -22 46 -49z
m422 -40 c-13 -23 -29 -44 -37 -46 -10 -3 -8 5 7 25 11 16 24 42 27 59 12 51
19 61 23 31 2 -16 -6 -44 -20 -69z m-1613 72 c-3 -5 -15 -10 -26 -10 -11 0
-17 5 -14 10 3 6 15 10 26 10 11 0 17 -4 14 -10z m1485 -6 c0 -2 -7 -4 -15 -4
-8 0 -15 4 -15 10 0 5 7 7 15 4 8 -4 15 -8 15 -10z m-1235 -4 c3 -5 -3 -10
-14 -10 -11 0 -23 5 -26 10 -3 6 3 10 14 10 11 0 23 -4 26 -10z m333 -7 c-23
-27 -29 -52 -18 -74 14 -25 25 -24 50 3 24 26 27 12 4 -20 -29 -42 -74 -22
-74 33 0 32 24 75 42 75 7 0 5 -7 -4 -17z m276 -13 c51 -61 61 -187 19 -246
-20 -28 -204 -134 -232 -134 -30 0 -4 19 57 44 161 63 210 142 166 270 -19 54
-52 81 -89 72 -14 -4 -25 -3 -25 2 0 16 13 22 46 22 24 0 39 -8 58 -30z m228
13 c18 -16 24 -33 11 -33 -10 1 -46 50 -37 50 4 0 16 -7 26 -17z m56 -11 c13
-19 13 -22 0 -22 -8 0 -20 12 -27 26 -14 32 5 29 27 -4z m552 -26 c-10 -27
-77 -106 -90 -106 -4 0 8 16 27 36 18 20 39 56 45 80 9 31 15 40 20 30 5 -8 4
-26 -2 -40z m-410 -13 c0 -22 -5 -33 -14 -33 -24 0 -28 18 -16 56 14 42 30 30
30 -23z m-1534 31 c19 -9 44 -29 55 -45 25 -35 15 -39 -12 -5 -11 14 -39 32
-64 41 -42 16 -46 16 -70 1 -56 -37 -8 -108 83 -122 42 -6 44 -8 25 -17 -30
-13 -106 15 -133 50 -60 76 20 143 116 97z m244 6 c0 -5 -11 -10 -24 -10 -13
0 -31 -3 -40 -6 -9 -3 -16 -1 -16 4 0 10 23 18 63 21 9 0 17 -3 17 -9z m56
-41 c-8 -19 -15 -29 -15 -22 -1 18 19 67 25 61 3 -3 -2 -21 -10 -39z m90 1
c-5 -58 -16 -62 -16 -7 0 26 4 47 10 47 6 0 8 -18 6 -40z m474 21 c0 -20 -27
-48 -37 -37 -9 8 14 56 27 56 5 0 10 -8 10 -19z m454 4 c3 -8 1 -15 -4 -15 -6
0 -10 7 -10 15 0 8 2 15 4 15 2 0 6 -7 10 -15z m426 8 c-1 -5 -7 -19 -15 -33
l-14 -25 -1 33 c0 22 5 32 15 32 8 0 15 -3 15 -7z m-1150 -55 c0 -17 -29 -7
-35 12 -10 32 6 46 21 19 7 -13 13 -27 14 -31z m497 7 c24 -42 30 -75 13 -75
-5 0 -10 11 -10 24 0 36 -38 79 -66 73 -24 -4 -31 3 -17 17 19 19 58 -1 80
-39z m659 -3 c-18 -36 -74 -72 -107 -71 -18 0 -13 4 18 16 44 15 92 62 94 91
0 10 3 12 5 5 3 -6 -2 -25 -10 -41z m73 17 c-15 -21 -25 -27 -32 -20 -7 7 -3
16 14 30 35 30 43 25 18 -10z m-1854 11 c18 -8 17 -9 -7 -9 -16 -1 -28 4 -28
9 0 12 8 12 35 0z m265 -10 c0 -5 -6 -10 -14 -10 -8 0 -18 5 -21 10 -3 6 3 10
14 10 12 0 21 -4 21 -10z m192 -5 c0 -5 -5 -11 -11 -13 -6 -2 -11 4 -11 13 0
9 5 15 11 13 6 -2 11 -8 11 -13z m-451 -15 c58 0 74 -16 19 -18 -46 -2 -90 13
-90 30 0 9 3 9 12 0 7 -7 33 -12 59 -12z m1555 -38 c68 -46 83 -52 129 -52 29
0 59 6 71 15 24 18 34 19 34 2 0 -18 -43 -37 -83 -37 -51 0 -95 16 -153 56
-90 62 -185 65 -254 8 -37 -32 -39 -66 -4 -93 61 -48 133 0 135 91 0 32 1 32
10 8 22 -54 -13 -120 -72 -133 -29 -7 -92 8 -107 26 -27 32 -24 64 10 102 44
51 81 66 150 62 49 -3 67 -10 134 -55z m34 33 c0 -14 -4 -25 -10 -25 -11 0
-14 33 -3 43 11 11 13 8 13 -18z m-1446 -34 c1 -30 -2 -37 -11 -29 -14 11 -18
60 -6 71 11 11 16 -1 17 -42z m356 30 c0 -10 -13 -51 -30 -89 -16 -39 -30 -80
-30 -92 0 -12 -4 -18 -10 -15 -17 10 -11 40 20 107 16 34 30 73 30 86 0 12 5
22 10 22 6 0 10 -9 10 -19z m35 -12 c-10 -43 -45 -122 -52 -115 -3 3 4 28 16
55 11 27 21 59 21 70 0 12 5 21 11 21 7 0 8 -11 4 -31z m45 -1 c0 -4 -9 -12
-20 -18 -20 -11 -20 -12 -4 37 4 15 6 15 14 3 6 -8 10 -18 10 -22z m98 20 c-3
-7 -25 -24 -50 -38 -26 -14 -56 -34 -67 -44 -27 -25 -27 -75 0 -110 20 -25 16
-34 -7 -18 -19 13 -34 50 -34 86 0 38 -5 33 110 111 40 27 53 30 48 13z m393
-19 c-9 -22 -10 -22 -10 -3 -1 11 2 24 6 27 12 12 14 0 4 -24z m-721 9 c0 -7
-9 -24 -21 -38 l-20 -25 18 38 c18 39 23 45 23 25z m110 -15 c0 -10 -14 -26
-30 -35 -40 -23 -42 2 -2 31 33 25 32 25 32 4z m478 -26 c-5 -46 -35 -117 -49
-117 -4 0 1 19 11 43 11 23 20 59 20 80 0 21 5 37 11 37 8 0 10 -15 7 -43z
m92 31 c0 -17 -45 -126 -55 -136 -5 -4 -5 2 -1 13 9 22 20 63 30 108 6 27 26
38 26 15z m800 -43 c5 -47 -2 -68 -30 -97 -39 -38 -53 -28 -16 11 30 31 36 73
17 108 -17 32 -13 40 8 18 11 -11 20 -29 21 -40z m-1648 15 c4 -24 2 -27 -9
-19 -15 13 -18 49 -4 49 5 0 11 -13 13 -30z m557 -60 c0 -23 -2 -21 -24 15
-13 22 -28 45 -34 51 -5 7 -7 15 -3 19 11 11 61 -58 61 -85z m361 68 c0 -16
-3 -19 -11 -11 -6 6 -8 16 -5 22 11 17 16 13 16 -11z m294 -5 c-7 -16 -14 -40
-14 -55 0 -16 -5 -28 -11 -28 -8 0 -9 12 -4 37 8 44 22 73 35 73 5 0 2 -12 -6
-27z m220 12 c-4 -8 -8 -15 -10 -15 -2 0 -4 7 -4 15 0 8 4 15 10 15 5 0 7 -7
4 -15z m-1538 -10 c12 -3 25 -12 28 -21 5 -13 2 -15 -11 -9 -10 4 -38 11 -63
16 -24 5 -48 13 -52 17 -7 7 57 5 98 -3z m1287 3 c-4 -7 -10 -33 -14 -58 -4
-34 -7 -41 -14 -27 -9 22 11 97 26 97 6 0 7 -6 2 -12z m105 -41 c-5 -66 -46
-122 -118 -161 -26 -14 -63 -40 -80 -56 -18 -17 -39 -30 -47 -30 -26 0 52 66
109 93 29 14 68 41 87 61 29 29 35 45 39 91 2 30 7 55 9 55 3 0 3 -24 1 -53z
m177 44 c3 -5 1 -12 -5 -16 -5 -3 -10 1 -10 9 0 18 6 21 15 7z m-1395 -17 c0
-10 -7 -14 -22 -12 -32 5 -35 28 -4 28 17 0 26 -5 26 -16z m442 -46 c9 -29 9
-41 0 -50 -9 -9 -12 -6 -12 13 0 13 -7 37 -15 53 -19 36 -19 52 0 36 8 -7 20
-30 27 -52z m804 -10 c-13 -121 -14 -129 -21 -136 -7 -7 -5 18 11 151 10 83
18 70 10 -15z m-451 29 c-8 -12 -15 -29 -15 -39 0 -10 -4 -18 -10 -18 -14 0
-13 15 5 56 8 20 19 33 25 29 7 -4 5 -14 -5 -28z m275 2 c-5 -18 -7 -36 -3
-42 3 -5 0 -8 -8 -5 -18 6 -24 45 -9 64 20 24 29 16 20 -17z m-672 -6 c19 -50
22 -68 12 -83 -7 -11 -10 -6 -10 21 0 19 -7 44 -15 55 -17 22 -19 34 -6 34 5
0 13 -12 19 -27z m754 -5 c-8 -8 -9 -4 -5 13 4 13 8 18 11 10 2 -7 -1 -18 -6
-23z m-1052 -24 c0 -40 -2 -45 -15 -34 -18 15 -19 34 -5 61 16 29 20 23 20
-27z m284 -30 c5 -23 2 -36 -14 -55 -19 -22 -20 -22 -11 -2 15 30 14 59 -4 92
-8 16 -11 31 -8 35 9 8 29 -29 37 -70z m487 66 c10 0 19 -4 19 -10 0 -15 -34
-12 -56 6 -17 14 -17 15 -1 10 10 -3 27 -6 38 -6z m427 -32 c0 -24 3 -57 6
-73 7 -41 -21 -98 -54 -106 -30 -7 -75 13 -90 41 -12 23 -2 27 14 5 6 -8 26
-19 44 -24 27 -8 36 -7 52 9 17 17 19 30 15 105 -3 47 -1 85 4 85 4 0 8 -19 9
-42z m-1123 1 c-9 -17 -19 -28 -22 -25 -6 6 23 56 32 56 3 0 -2 -14 -10 -31z
m-177 9 c-6 -17 -65 -29 -115 -22 -33 5 -45 2 -62 -15 -45 -45 10 -73 190 -95
67 -9 127 -21 133 -27 8 -8 6 -10 -9 -6 -11 3 -67 9 -125 13 -109 7 -171 23
-202 51 -21 19 -24 78 -5 90 6 4 50 11 97 14 47 3 89 6 93 7 5 1 7 -4 5 -10z
m329 -13 c-4 -8 -11 -15 -17 -15 -7 0 -7 6 0 21 13 23 26 19 17 -6z m1057 -4
c35 -16 66 -34 70 -40 11 -16 -3 -13 -32 8 -15 10 -46 24 -69 31 -24 7 -43 17
-43 22 0 12 4 11 74 -21z m-514 9 c18 0 21 -3 11 -9 -8 -5 -27 -5 -44 0 -36
10 -52 24 -17 16 14 -4 36 -7 50 -7z m-370 -65 c-16 -32 -34 -52 -62 -66 -22
-11 -45 -18 -51 -16 -7 2 4 11 23 19 41 17 90 71 90 97 0 21 13 37 18 22 2 -6
-6 -32 -18 -56z m353 37 c15 -2 27 -9 27 -14 0 -6 -8 -7 -17 -3 -10 3 -30 9
-45 12 -16 3 -28 10 -28 15 0 6 8 7 18 3 9 -4 29 -10 45 -13z m652 -11 c-3
-11 -20 -34 -36 -51 -26 -26 -38 -30 -84 -30 -30 0 -56 4 -59 8 -3 5 17 7 44
4 60 -5 93 13 117 63 18 37 29 40 18 6z m-1485 -2 c16 -29 7 -34 -45 -19 -24
7 -69 10 -100 8 -45 -4 -53 -2 -43 9 7 9 25 12 57 8 25 -3 60 -1 76 4 43 13
43 13 55 -10z m330 12 c0 -11 -31 -24 -39 -16 -3 3 1 10 9 15 19 12 30 12 30
1z m204 0 c3 -5 -1 -11 -9 -15 -9 -3 -15 0 -15 9 0 16 16 20 24 6z m843 -16
c53 -32 57 -43 6 -15 -21 11 -48 20 -60 20 -12 0 -25 5 -28 10 -12 19 39 10
82 -15z m83 15 c0 -5 -4 -10 -9 -10 -6 0 -13 5 -16 10 -3 6 1 10 9 10 9 0 16
-4 16 -10z m-1235 -20 c-3 -5 -10 -10 -16 -10 -5 0 -9 5 -9 10 0 6 7 10 16 10
8 0 12 -4 9 -10z m1016 -83 c-13 -13 -15 34 -3 73 6 21 7 18 10 -19 2 -24 -2
-49 -7 -54z m-427 77 c30 -12 16 -19 -29 -16 -24 2 -67 -4 -96 -13 -35 -12
-64 -15 -93 -10 -65 10 -80 8 -103 -20 -41 -47 -3 -79 53 -44 37 22 44 17 17
-13 -18 -20 -73 -24 -91 -6 -21 21 -13 58 17 89 33 32 50 35 116 17 38 -10 52
-10 88 4 45 17 95 22 121 12z m162 -20 c-22 -16 -36 -18 -36 -6 0 11 43 32 50
25 3 -3 -4 -11 -14 -19z m401 -3 c14 -8 9 -10 -29 -11 -41 0 -48 3 -48 19 0
17 4 18 29 11 16 -4 38 -13 48 -19z m-1440 4 c28 -8 62 -16 77 -17 14 -1 26
-5 26 -9 0 -8 -92 -1 -152 13 -50 10 -65 28 -25 28 13 0 46 -7 74 -15z m393 5
c0 -5 -4 -10 -9 -10 -6 0 -13 5 -16 10 -3 6 1 10 9 10 9 0 16 -4 16 -10z m111
-4 c-6 -7 -39 -26 -73 -41 -56 -25 -64 -26 -102 -15 -22 7 -35 15 -28 17 7 3
25 0 41 -6 30 -13 49 -8 116 33 45 28 63 32 46 12z m-201 -6 c0 -5 -9 -10 -19
-10 -11 0 -23 5 -26 10 -4 6 5 10 19 10 14 0 26 -4 26 -10z m779 -6 c-17 -21
-64 -44 -89 -44 -29 0 -16 17 19 25 16 3 35 13 42 21 6 8 18 14 26 14 13 0 13
-3 2 -16z m-213 -5 c5 -8 -1 -10 -18 -6 -14 4 -45 0 -68 -8 -60 -21 -74 -18
-20 5 52 22 96 25 106 9z m231 -25 c-15 -13 -53 -31 -85 -40 -83 -23 -82 -22
-89 -40 -9 -24 23 -44 72 -44 49 0 152 26 182 46 25 16 33 17 33 6 0 -25 -112
-60 -213 -65 -64 -4 -97 11 -97 44 0 25 37 58 65 59 39 0 95 21 122 45 16 13
30 21 33 18 3 -2 -8 -15 -23 -29z m58 26 c-3 -5 -11 -10 -16 -10 -6 0 -7 5 -4
10 3 6 11 10 16 10 6 0 7 -4 4 -10z m85 -33 c0 -5 -4 -5 -10 -2 -5 3 -10 14
-10 23 0 15 2 15 10 2 5 -8 10 -19 10 -23z m-891 -32 c53 -14 107 -42 98 -52
-3 -2 -14 0 -24 5 -10 5 -36 13 -58 16 -50 9 -125 52 -125 72 0 12 6 10 28 -6
15 -11 52 -27 81 -35z m250 31 c10 -12 8 -17 -9 -26 -28 -15 -43 -4 -30 21 13
23 23 24 39 5z m66 4 c18 -8 17 -9 -7 -9 -15 -1 -30 4 -33 9 -7 12 12 12 40 0z
m165 6 c0 -11 -19 -15 -25 -6 -3 5 1 10 9 10 9 0 16 -2 16 -4z m-90 -31 c16
-19 1 -19 -24 0 -16 12 -17 15 -4 15 8 0 21 -7 28 -15z m-245 -14 c-3 -6 -18
-11 -33 -11 l-27 1 30 13 c32 14 41 13 30 -3z m209 -6 c-2 -19 -97 -76 -123
-73 -41 5 -34 23 14 36 24 6 50 21 57 32 13 20 54 25 52 5z m416 -15 c-19 -16
-39 -29 -45 -29 -5 0 6 13 25 29 19 17 39 30 44 30 6 0 -5 -13 -24 -30z m50 5
c-7 -8 -18 -15 -24 -15 -6 0 -2 7 8 15 25 19 32 19 16 0z m-674 -21 c-11 -7
-22 -11 -25 -8 -3 3 3 12 13 20 11 7 22 11 25 8 3 -3 -3 -12 -13 -20z m-226
-15 c76 -38 155 -42 217 -10 48 24 57 26 47 10 -3 -6 -27 -20 -51 -31 -80 -35
-160 -23 -263 40 -52 32 -19 26 50 -9z m616 22 c-3 -5 -20 -14 -36 -20 -35
-12 -32 5 4 19 28 12 38 12 32 1z m110 -6 c-22 -17 -56 -20 -56 -6 0 10 23 18
55 20 20 0 20 0 1 -14z m-255 -36 c39 -9 62 -8 91 1 53 15 61 5 12 -16 -37
-16 -45 -16 -156 2 -21 3 -35 10 -32 15 7 12 22 11 85 -2z"/>
</g>
</svg>
