<?xml version="1.0" standalone="no"?>
<!DOCTYPE svg PUBLIC "-//W3C//DTD SVG 20010904//EN"
 "http://www.w3.org/TR/2001/REC-SVG-20010904/DTD/svg10.dtd">
<svg version="1.0" xmlns="http://www.w3.org/2000/svg"
 width="225.000000pt" height="225.000000pt" viewBox="0 0 225.000000 225.000000"
 preserveAspectRatio="xMidYMid meet">

<g transform="translate(0.000000,225.000000) scale(0.100000,-0.100000)"
fill="#fff" stroke="none">
<path d="M1015 1990 c-242 -33 -442 -150 -591 -345 -49 -65 -111 -194 -135
-285 -33 -122 -34 -331 -1 -443 88 -306 327 -537 632 -613 110 -27 307 -25
414 5 311 87 542 324 616 633 25 103 27 267 4 376 -64 311 -315 573 -624 651
-91 22 -233 32 -315 21z m254 -90 c167 -34 318 -122 435 -252 66 -73 146 -230
170 -329 19 -77 21 -269 5 -335 l-11 -44 -754 0 -753 0 -8 48 c-4 26 -8 101
-8 167 0 141 20 218 91 356 49 94 149 207 237 268 120 82 298 139 437 140 36
0 107 -8 159 -19z m-538 -1155 l15 -100 13 80 c19 123 20 125 47 125 13 0 24
-4 24 -8 0 -11 -50 -274 -56 -294 -3 -11 -15 -18 -29 -18 -28 0 -25 -8 -55
155 -11 61 -23 123 -26 138 -6 27 -4 28 23 25 27 -3 28 -5 44 -103z m259 80
c0 -23 -4 -25 -45 -25 l-45 0 0 -40 c0 -39 1 -40 33 -40 40 0 46 -5 40 -31 -4
-14 -14 -19 -39 -19 -34 0 -34 -1 -34 -45 l0 -45 45 0 c41 0 45 -2 45 -25 0
-24 -2 -25 -70 -25 l-70 0 0 160 0 160 70 0 c68 0 70 -1 70 -25z m178 -27 c3
-46 2 -48 -22 -48 -21 0 -26 5 -26 25 0 21 -5 25 -30 25 l-30 0 0 -110 0 -110
30 0 c28 0 30 2 30 39 0 31 -4 40 -21 44 -13 4 -20 12 -17 24 2 14 13 18 46
19 l43 0 -3 -85 -3 -86 -75 0 -75 0 -3 145 c-1 79 0 150 3 157 3 10 24 13 77
11 l73 -3 3 -47z m166 -95 c15 -82 28 -152 27 -158 0 -5 -12 -11 -26 -13 -22
-3 -25 0 -25 27 0 28 -3 31 -29 31 -25 0 -30 -4 -33 -27 -2 -22 -9 -29 -32
-31 -25 -3 -28 -1 -23 20 3 13 18 85 33 161 26 135 27 137 54 137 26 0 27 -1
54 -147z m131 62 l30 -80 3 83 c3 80 4 82 27 82 l25 0 0 -160 0 -160 -24 0
c-20 0 -27 11 -54 83 l-31 82 0 -82 c-1 -82 -1 -83 -26 -83 l-25 0 0 161 0
160 22 -3 c18 -2 29 -19 53 -83z"/>
<path d="M1270 709 c0 -13 -3 -34 -6 -46 -5 -18 -2 -23 13 -23 18 0 20 4 13
40 -9 48 -20 64 -20 29z"/>
</g>
</svg>
